{
  "accessors": [
    {
      "bufferView": 2,
      "componentType": 5126,
      "count": 12700,
      "max": [
        116.51944732666016,
        372.6024475097656,
        305.0999450683594
      ],
      "min": [
        -315.68011474609375,
        -379.4744567871094,
        -0.3368980586528778
      ],
      "type": "VEC3"
    },
    {
      "bufferView": 2,
      "byteOffset": 152400,
      "componentType": 5126,
      "count": 12700,
      "max": [
        1.0,
        1.0,
        1.0
      ],
      "min": [
        -1.0,
        -1.0,
        -1.0
      ],
      "type": "VEC3"
    },
    {
      "bufferView": 3,
      "componentType": 5126,
      "count": 12700,
      "max": [
        1.0,
        1.0,
        1.0,
        1.0
      ],
      "min": [
        -1.0,
        -1.0,
        -1.0,
        -1.0
      ],
      "type": "VEC4"
    },
    {
      "bufferView": 1,
      "componentType": 5126,
      "count": 12700,
      "max": [
        0.99560546875,
        0.9957427978515625
      ],
      "min": [
        -0.99560546875,
        0.0048828125
      ],
      "type": "VEC2"
    },
    {
      "bufferView": 1,
      "byteOffset": 101600,
      "componentType": 5126,
      "count": 12700,
      "max": [
        0.99560546875,
        0.9957427978515625
      ],
      "min": [
        -0.99560546875,
        0.0048828125
      ],
      "type": "VEC2"
    },
    {
      "bufferView": 0,
      "componentType": 5125,
      "count": 16779,
      "type": "SCALAR"
    }
  ],
  "asset": {
    "extras": {
      "author": "geevisual55 (https://sketchfab.com/geevisual55)",
      "license": "CC-BY-4.0 (http://creativecommons.org/licenses/by/4.0/)",
      "source": "https://sketchfab.com/3d-models/mobile-home-16c9bb2715e544d59f4e9a03e0a5745e",
      "title": "Mobile Home"
    },
    "generator": "Sketchfab-15.27.0",
    "version": "2.0"
  },
  "bufferViews": [
    {
      "buffer": 0,
      "byteLength": 67116,
      "name": "floatBufferViews",
      "target": 34963
    },
    {
      "buffer": 0,
      "byteLength": 203200,
      "byteOffset": 67116,
      "byteStride": 8,
      "name": "floatBufferViews",
      "target": 34962
    },
    {
      "buffer": 0,
      "byteLength": 304800,
      "byteOffset": 270316,
      "byteStride": 12,
      "name": "floatBufferViews",
      "target": 34962
    },
    {
      "buffer": 0,
      "byteLength": 203200,
      "byteOffset": 575116,
      "byteStride": 16,
      "name": "floatBufferViews",
      "target": 34962
    }
  ],
  "buffers": [
    {
      "byteLength": 778316,
      "uri": "scene.bin"
    }
  ],
  "extensionsUsed": [
    "KHR_materials_specular"
  ],
  "images": [
    {
      "uri": "textures/MI_MobileHome_A_baseColor.png"
    },
    {
      "uri": "textures/MI_MobileHome_A_normal.png"
    }
  ],
  "materials": [
    {
      "doubleSided": true,
      "extensions": {
        "KHR_materials_specular": {
          "specularColorFactor": [
            1.0,
            1.0,
            1.0
          ],
          "specularFactor": 0.5714303129304774
        }
      },
      "name": "MI_MobileHome_A",
      "normalTexture": {
        "index": 1
      },
      "pbrMetallicRoughness": {
        "baseColorTexture": {
          "index": 0
        },
        "metallicFactor": 0.7603832697394887,
        "roughnessFactor": 0.565335056259219
      }
    }
  ],
  "meshes": [
    {
      "name": "MobileHome_A_MI_MobileHome_A_0",
      "primitives": [
        {
          "attributes": {
            "NORMAL": 1,
            "POSITION": 0,
            "TANGENT": 2,
            "TEXCOORD_0": 3,
            "TEXCOORD_1": 4
          },
          "indices": 5,
          "material": 0,
          "mode": 4
        }
      ]
    }
  ],
  "nodes": [
    {
      "children": [
        1
      ],
      "matrix": [
        1.0,
        0.0,
        0.0,
        0.0,
        0.0,
        2.220446049250313e-16,
        -1.0,
        0.0,
        0.0,
        1.0,
        2.220446049250313e-16,
        0.0,
        0.0,
        0.0,
        0.0,
        1.0
      ],
      "name": "Sketchfab_model"
    },
    {
      "children": [
        2
      ],
      "matrix": [
        0.02539999969303608,
        0.0,
        0.0,
        0.0,
        0.0,
        0.0,
        0.02539999969303608,
        0.0,
        0.0,
        -0.02539999969303608,
        0.0,
        0.0,
        0.0,
        0.0,
        0.0,
        1.0
      ],
      "name": "MobileHome_A.fbx"
    },
    {
      "children": [
        3,
        5
      ],
      "name": "RootNode"
    },
    {
      "children": [
        4
      ],
      "matrix": [
        0.8676619066391749,
        -0.1508874376501953,
        0.4737043349248878,
        0.0,
        0.13243554296495574,
        0.9885509502091222,
        0.07230384360612464,
        0.0,
        -0.4791906121021667,
        -5.551115123125783e-17,
        0.8777108620002095,
        0.0,
        -1320.431396484375,
        372.57415771484375,
        -441.2464904785156,
        1.0
      ],
      "name": "CINEMA_4D_Editor"
    },
    {
      "name": "Object_4"
    },
    {
      "children": [
        6
      ],
      "matrix": [
        1.0,
        0.0,
        0.0,
        0.0,
        0.0,
        2.220446049250313e-16,
        -1.0,
        0.0,
        0.0,
        1.0,
        2.220446049250313e-16,
        0.0,
        0.0,
        0.0,
        0.0,
        1.0
      ],
      "name": "MobileHome_A"
    },
    {
      "mesh": 0,
      "name": "MobileHome_A_MI_MobileHome_A_0"
    }
  ],
  "samplers": [
    {
      "magFilter": 9729,
      "minFilter": 9987,
      "wrapS": 10497,
      "wrapT": 10497
    }
  ],
  "scene": 0,
  "scenes": [
    {
      "name": "Sketchfab_Scene",
      "nodes": [
        0
      ]
    }
  ],
  "textures": [
    {
      "sampler": 0,
      "source": 0
    },
    {
      "sampler": 0,
      "source": 1
    }
  ]
}
